# xmcd
#
# Track frame offsets:
#	150
#	19095
#	29942
#	44127
#	59135
#	68710
#	85227
#	98770
#	114165
#	138500
#
# Disc length: 2014
#
# Revision: 3
# Processed by: cddbd v1.5.1PL0 Copyright (c) Steve Scherf et al.
# Submitted via: CDmax 1.4
# Normalized: r1:TDELIM( - ),TSWAP
#
DISCID=9107dc0a
DTITLE=Country Gospel Collection - Will the Circle be Unbroken - Vol. 2
DYEAR=1900
DGENRE=
TTITLE0=T. Graham Brown - Oh, Happy Day
TTITLE1=Ferlin Husky - Wings of a Dove
TTITLE2=Cristy Lane - One Day at a Time
TTITLE3=The Gatlin Brothers - Amazing Grace
TTITLE4=Skeeter Davis - Turn Your Radio On
TTITLE5=Judy Radman - Everything is Beautiful
TTITLE6=JD Sumner and The Stamps - Where Could I go but to The Lord
TTITLE7=Melba Montgomery - No Charge
TTITLE8=Lee Greenwood - How Great Thou Art
TTITLE9=Patsy Cline - Just a Closer Walk With Thee
EXTD=
EXTT0=
EXTT1=
EXTT2=
EXTT3=
EXTT4=
EXTT5=
EXTT6=
EXTT7=
EXTT8=
EXTT9=
PLAYORDER=
